<svg width="36" height="36" viewBox="0 0 36 36" fill="none" xmlns="http://www.w3.org/2000/svg">
<path fill-rule="evenodd" clip-rule="evenodd" d="M13.6982 3.63146C10.2782 4.68296 7.46422 6.77396 5.50822 9.71846C4.88281 10.6829 4.35759 11.7087 3.94072 12.78C3.22592 14.7257 2.91988 16.7979 3.04169 18.8672C3.16351 20.9365 3.71057 22.9585 4.64872 24.807C5.3588 26.2093 6.29138 27.4874 7.41022 28.5915C11.2262 32.4165 16.7777 33.8775 22.0217 32.436C26.9777 31.074 30.9782 27.1245 32.3972 22.194C32.6882 21.1785 32.6252 20.6355 32.1632 20.172C31.8827 19.893 31.6487 19.788 31.2182 19.7535C30.7547 19.716 30.4067 19.8345 30.0977 20.1345C29.8187 20.406 29.7437 20.556 29.5457 21.243C28.1987 25.9335 24.2972 29.2725 19.4222 29.907C17.2097 30.1965 14.8022 29.778 12.6902 28.7385C8.24272 26.5485 5.56822 21.75 6.06322 16.851C6.29759 14.4443 7.25282 12.1644 8.80399 10.3095C10.3552 8.45458 12.43 7.11099 14.7572 6.45446C15.4397 6.25796 15.5717 6.19196 15.8372 5.92196C16.3832 5.36246 16.3922 4.42046 15.8567 3.86846C15.3617 3.35846 14.7902 3.29696 13.6982 3.63146ZM20.6057 3.53396C19.6937 3.94796 19.4507 5.20946 20.1482 5.90846C20.4332 6.19496 20.5577 6.25646 21.2432 6.45446C22.1107 6.70176 22.9486 7.04277 23.7422 7.47146C24.5477 7.88846 24.6332 7.91996 24.9782 7.91996C25.8527 7.91846 26.4617 7.30946 26.4602 6.43646C26.4658 6.20767 26.4159 5.98093 26.3149 5.77562C26.2138 5.5703 26.0645 5.39252 25.8797 5.25746C25.5047 4.98446 24.0662 4.26446 23.3537 3.99446C21.9047 3.44396 21.1007 3.30896 20.6057 3.53396ZM28.8602 9.69596C28.4762 9.91496 28.3817 10.011 28.2227 10.35C28.1247 10.557 28.0759 10.7839 28.0802 11.013C28.0802 11.352 28.1162 11.4495 28.6082 12.423C28.9622 13.125 29.2202 13.737 29.3927 14.28C29.7797 15.501 29.8022 15.555 30.0407 15.801C30.3347 16.1025 30.5507 16.2075 30.9617 16.2435C31.8587 16.326 32.5757 15.6855 32.5787 14.799C32.5817 14.145 32.0762 12.6525 31.3757 11.25C30.8312 10.1595 30.6182 9.87146 30.2207 9.68546C29.7797 9.47996 29.2307 9.48446 28.8602 9.69596Z" fill="currentColor"/>
</svg>
