<svg width="36" height="36" viewBox="0 0 36 36" fill="none" xmlns="http://www.w3.org/2000/svg">
<path fill-rule="evenodd" clip-rule="evenodd" d="M15.9995 3.09746C15.6035 3.21896 15.215 3.62246 15.0935 4.03796C15.0425 4.21046 14.933 4.64246 14.8505 4.99946C14.4125 6.89246 13.2005 9.08846 11.4815 11.1C10.8035 11.895 10.298 12.411 9.40998 13.2195C8.44998 14.094 7.47048 15.117 6.93498 15.8025C5.65248 17.4495 4.79898 19.2315 4.43298 21.03C4.26948 21.8295 4.23948 23.4195 4.37298 24.24C4.56948 25.452 5.14998 26.9235 5.85198 27.99C7.52298 30.5265 10.37 32.3655 13.424 32.883C14.504 33.0645 14.924 32.9775 15.359 32.4825C15.632 32.172 15.7205 31.926 15.7205 31.485C15.7205 31.1745 15.6815 31.026 15.5075 30.6615C15.1924 29.988 14.953 29.2817 14.7935 28.5555C14.456 26.7795 15.113 25.248 16.88 23.688L17.348 23.274L17.63 23.742C17.7845 24 18.152 24.534 18.446 24.93C19.2665 26.031 19.5455 26.49 19.721 27.0225C19.868 27.4695 19.8815 27.588 19.8785 28.44C19.886 28.9929 19.8413 29.5454 19.745 30.09C19.436 31.7925 19.4405 31.9065 19.829 32.415C20.1365 32.8185 20.4905 32.9715 21.0905 32.9625C21.617 32.955 22.676 32.7795 23.6105 32.5455C26.8865 31.7235 29.2085 29.928 30.413 27.288C31.037 25.917 31.3205 24.693 31.448 22.8165C31.5813 21.0921 31.3497 19.3589 30.7685 17.73C29.987 15.516 28.7285 13.23 27.11 11.0865C26.084 9.72746 25.028 8.57996 24.6305 8.39396C24.332 8.25446 23.723 8.24396 23.414 8.37296C23.123 8.49296 22.781 8.83046 22.6475 9.12596C22.5905 9.25496 22.526 9.35996 22.505 9.35996C22.4855 9.35996 22.355 9.09746 22.2155 8.77496C21.32 6.71096 19.751 4.85696 17.8085 3.56846C16.9325 2.98646 16.6235 2.90546 15.9995 3.09746ZM17.7365 7.39496C19.1861 8.90004 20.0647 10.8641 20.2205 12.948C20.2985 13.9635 20.342 14.13 20.615 14.4495C20.9375 14.826 21.2435 14.9655 21.7505 14.9685C22.124 14.97 22.2125 14.946 22.5605 14.751C23.312 14.3265 23.8805 13.746 24.275 13.002L24.491 12.5925L24.7625 12.942C25.1495 13.437 26.0885 14.865 26.4875 15.564C27.4175 17.187 28.022 18.6855 28.3295 20.13C28.451 20.6985 28.4705 20.952 28.4675 21.96C28.4645 23.151 28.4045 23.7135 28.1915 24.57C27.6545 26.733 26.546 28.116 24.635 29.013C24.1115 29.2575 23.3885 29.5215 23.0105 29.604L22.8305 29.643L22.8605 28.9365C22.919 27.5925 22.781 26.5575 22.4255 25.68C22.166 25.0395 21.812 24.4605 21.029 23.3985C20.24 22.326 19.8365 21.63 19.523 20.8005C19.2485 20.07 18.959 19.737 18.476 19.5945C17.858 19.41 17.564 19.4865 16.7285 20.046C15.3965 20.9385 14.411 21.789 13.6505 22.701C12.104 24.555 11.4935 26.514 11.786 28.68C11.828 28.9935 11.855 29.2605 11.8445 29.2725C11.8085 29.316 10.88 28.782 10.412 28.449C9.82098 28.029 8.87598 27.1005 8.50398 26.5755C6.79848 24.1635 6.86298 21.2715 8.68398 18.51C9.42948 17.3805 9.93198 16.8315 12.056 14.8215C13.172 13.764 13.8695 12.987 14.6975 11.8785C15.713 10.5195 16.6265 8.93396 17.138 7.64246C17.261 7.33346 17.378 7.07996 17.3975 7.07996C17.4185 7.07996 17.57 7.22096 17.7365 7.39496Z" fill="currentColor"/>
</svg>
