<svg width="36" height="36" viewBox="0 0 36 36" fill="none" xmlns="http://www.w3.org/2000/svg">
<path fill-rule="evenodd" clip-rule="evenodd" d="M12.5388 4.5915C10.7433 4.872 9.05732 6.078 8.22632 7.68C7.67582 8.739 7.55582 9.282 7.50782 10.9395L7.47182 12.1905L7.06982 12.33C5.6174 12.8372 4.41203 13.8774 3.69782 15.24C3.38499 15.8158 3.17869 16.4434 3.08882 17.0925C2.98081 17.6927 2.98081 18.3073 3.08882 18.9075C3.25748 19.988 3.71714 21.0021 4.41849 21.8411C5.11983 22.6802 6.03639 23.3124 7.06982 23.67L7.47182 23.8095L7.50782 25.0605C7.55582 26.718 7.67582 27.261 8.22632 28.32C8.89982 29.6175 10.1868 30.702 11.6343 31.1955C12.0768 31.3455 13.0218 31.5 13.5018 31.5C15.0003 31.5 16.5453 30.867 17.7138 29.7735L18.0018 29.5035L18.2898 29.7735C19.2498 30.672 20.3733 31.2285 21.5943 31.413C22.3203 31.521 22.6833 31.521 23.4093 31.413C25.5543 31.089 27.3453 29.622 28.1373 27.54C28.3773 26.9055 28.4583 26.3535 28.4958 25.0605L28.5318 23.8095L28.9338 23.67C30.3862 23.1628 31.5916 22.1226 32.3058 20.76C32.6186 20.1842 32.8249 19.5566 32.9148 18.9075C33.0228 18.3073 33.0228 17.6927 32.9148 17.0925C32.7462 16.012 32.2865 14.9979 31.5851 14.1589C30.8838 13.3198 29.9672 12.6876 28.9338 12.33L28.5318 12.1905L28.4958 10.9395C28.4478 9.282 28.3278 8.739 27.7773 7.68C27.1038 6.3825 25.8168 5.298 24.3693 4.8045C23.7615 4.62734 23.1344 4.52509 22.5018 4.5C21.0033 4.5 19.4583 5.133 18.2898 6.2265L18.0018 6.4965L17.7138 6.2265C16.7538 5.328 15.6303 4.7715 14.4093 4.587C13.79 4.48347 13.1576 4.48499 12.5388 4.5915ZM14.2398 7.59C14.4288 7.638 14.7243 7.7505 14.8968 7.8375C15.3003 8.0415 15.9603 8.7015 16.1643 9.1035C16.4913 9.7515 16.5003 9.8655 16.5003 13.725C16.5018 15.681 16.4868 17.28 16.4703 17.28C16.4523 17.28 16.2843 17.2035 16.0953 17.109C15.5654 16.8447 14.9959 16.6684 14.4093 16.587C13.3413 16.4265 12.9033 16.509 12.4608 16.95C12.3173 17.0847 12.203 17.2473 12.1248 17.4279C12.0466 17.6085 12.0063 17.8032 12.0063 18C12.0063 18.1968 12.0466 18.3915 12.1248 18.5721C12.203 18.7527 12.3173 18.9153 12.4608 19.05C12.7578 19.347 13.1523 19.5 13.6203 19.5C13.9803 19.5 14.5038 19.638 14.8968 19.8375C15.3003 20.0415 15.9603 20.7015 16.1643 21.1035C16.4643 21.696 16.5003 22.0095 16.5003 24.021C16.5018 26.028 16.4703 26.2905 16.1583 26.9055C15.9588 27.3 15.2958 27.96 14.8968 28.1625C14.4648 28.3828 13.9868 28.4977 13.5018 28.4977C13.0169 28.4977 12.5388 28.3828 12.1068 28.1625C11.6583 27.9345 11.0238 27.279 10.8048 26.8155C10.5438 26.2635 10.4973 25.941 10.5153 24.8115L10.5318 23.7945L10.7868 23.721C11.3928 23.547 11.7978 23.1525 11.9493 22.593C12.1278 21.9315 11.7753 21.201 11.1348 20.9025C10.7598 20.7285 10.4283 20.7225 9.81182 20.88C8.67332 21.171 7.70282 20.9145 6.89582 20.106C6.29132 19.5015 6.00182 18.819 6.00182 18C6.00182 17.181 6.29132 16.4985 6.89582 15.894C7.46582 15.324 8.18582 15 8.88332 15C9.35432 15 9.74582 14.847 10.0473 14.5455C10.4763 14.1165 10.5018 13.9665 10.5018 11.8815C10.5018 9.957 10.5318 9.7125 10.8393 9.105C11.0448 8.7 11.7033 8.0415 12.1083 7.8375C12.7671 7.50533 13.5224 7.41763 14.2398 7.59ZM23.2398 7.59C23.7798 7.7295 24.1788 7.965 24.6078 8.394C25.4073 9.1935 25.5003 9.558 25.5003 11.9445C25.5018 13.9905 25.5228 14.112 25.9608 14.55C26.2578 14.847 26.6523 15 27.1203 15C27.8178 15 28.5378 15.324 29.1078 15.894C29.5518 16.3365 29.7798 16.7355 29.9118 17.2935C30.1608 18.354 29.8818 19.3335 29.1078 20.106C28.3008 20.9145 27.3303 21.171 26.1918 20.88C25.5753 20.7225 25.2438 20.7285 24.8688 20.9025C24.2283 21.201 23.8758 21.9315 24.0543 22.593C24.2058 23.1525 24.6108 23.547 25.2168 23.721L25.4718 23.7945L25.4883 24.828C25.5123 26.3415 25.3458 26.8695 24.6078 27.606C24.0033 28.2105 23.3208 28.5 22.5018 28.5C21.6828 28.5 21.0003 28.2105 20.3958 27.606C19.9668 27.177 19.7313 26.778 19.5918 26.238C19.4613 25.7415 19.4613 22.2585 19.5918 21.762C19.7313 21.222 19.9668 20.823 20.3958 20.394C20.9658 19.824 21.6858 19.5 22.3833 19.5C23.1063 19.5 23.7288 19.0785 23.9103 18.465C24.0243 18.0795 24.0243 17.9205 23.9103 17.535C23.7318 16.9335 23.1048 16.5 22.4163 16.5C21.6753 16.5015 20.6013 16.761 19.9083 17.109C19.787 17.1738 19.6618 17.2309 19.5333 17.28C19.5168 17.28 19.5018 15.666 19.5018 13.692C19.5018 9.7995 19.5048 9.7665 19.8393 9.105C20.0448 8.7 20.7033 8.0415 21.1083 7.8375C21.7671 7.50533 22.5224 7.41763 23.2398 7.59Z" fill="currentColor"/>
</svg>
