<svg width="43" height="43" viewBox="0 0 43 43" fill="none" xmlns="http://www.w3.org/2000/svg">
<path fill-rule="evenodd" clip-rule="evenodd" d="M12.3635 6.23854C11.6092 6.33887 10.7599 6.94983 10.4267 7.63066C10.217 8.05887 10.0504 9.19479 9.8623 11.5025C9.53263 15.5104 9.43051 18.6548 9.48426 23.0408C9.5398 27.3659 9.68313 30.0229 10.0415 33.325C10.2135 34.9142 10.2117 34.9016 10.4858 35.4266C10.9033 36.2221 11.6844 36.7004 12.6465 36.7506C13.3202 36.7864 13.4152 36.7542 15.644 35.7473C19.7308 33.9037 25.2957 30.8614 29.886 27.9643C32.4176 26.3661 35.768 24.0387 36.4811 23.383C37.0508 22.8598 37.2927 22.3116 37.2963 21.5358C37.2999 20.5396 36.9863 19.9358 36.1281 19.2855C32.509 16.546 26.9136 13.0361 21.7321 10.2555C19.5561 9.11436 17.3522 8.02708 15.1226 6.99462C13.4116 6.23674 13.0712 6.14358 12.3635 6.23854ZM15.5777 11.1513C20.0605 13.2762 25.6128 16.4295 29.9218 19.2998C31.3748 20.2673 33.0393 21.439 33.0375 21.4928C33.0357 21.5483 31.5916 22.566 30.101 23.5568C26.1317 26.183 22.0161 28.5811 17.7743 30.7396C15.8339 31.7196 13.6158 32.7749 13.5782 32.7355C13.523 32.3121 13.4788 31.8873 13.4456 31.4616C13.1178 27.8514 13.0174 24.8522 13.0658 20.1383C13.107 16.3113 13.1518 15.179 13.3686 12.4341C13.5424 10.2196 13.5406 10.2375 13.7144 10.2913C13.7968 10.3182 14.6353 10.7052 15.5777 11.1513Z" fill="white"/>
</svg>
