<svg width="36" height="36" viewBox="0 0 36 36" fill="none" xmlns="http://www.w3.org/2000/svg">
<path fill-rule="evenodd" clip-rule="evenodd" d="M17.509 3.09432C16.9795 3.25782 16.4995 3.91332 16.4995 4.47282C16.4995 4.58682 16.4575 4.60782 16.141 4.64082C14.497 4.81182 12.205 5.65932 10.6795 6.65982C8.61499 7.99999 6.95456 9.87718 5.87646 12.0898C5.25246 13.3693 4.76196 14.9743 4.64046 16.1413C4.60746 16.4578 4.58646 16.4998 4.47246 16.4998C4.14546 16.4998 3.72096 16.6888 3.45846 16.9498C3.31497 17.0845 3.2006 17.2471 3.12242 17.4277C3.04424 17.6083 3.00391 17.803 3.00391 17.9998C3.00391 18.1966 3.04424 18.3913 3.12242 18.5719C3.2006 18.7525 3.31497 18.9152 3.45846 19.0498C3.72096 19.3108 4.14546 19.4998 4.47246 19.4998C4.58646 19.4998 4.60746 19.5418 4.64046 19.8583C4.81146 21.5023 5.65896 23.7943 6.65946 25.3198C7.71008 26.9209 9.07835 28.2892 10.6795 29.3398C12.1975 30.3358 14.503 31.1878 16.141 31.3588C16.48 31.3948 16.4995 31.4053 16.4995 31.5583C16.4995 32.1073 16.9885 32.7463 17.5345 32.9083C17.92 33.0223 18.079 33.0223 18.4645 32.9083C19.018 32.7448 19.4995 32.1028 19.4995 31.5313C19.4995 31.4173 19.555 31.3978 20.065 31.3303C21.3055 31.1638 22.615 30.7483 23.9695 30.0913C26.631 28.7843 28.7839 26.6314 30.091 23.9698C30.745 22.6198 31.1635 21.3058 31.3285 20.0773L31.402 19.5223L31.756 19.4563C33.388 19.1458 33.388 16.8538 31.756 16.5433L31.402 16.4773L31.3285 15.9223C31.1635 14.6938 30.745 13.3798 30.091 12.0298C29.0515 9.88783 27.3955 8.02182 25.3195 6.65982C23.8015 5.66382 21.496 4.81182 19.858 4.64082C19.5415 4.60782 19.4995 4.58682 19.4995 4.47282C19.4995 3.89682 19.0195 3.25632 18.4645 3.09132C18.1554 2.98058 17.8173 2.98164 17.509 3.09432ZM16.4995 8.41932C16.4995 9.39132 16.5775 9.66882 16.9585 10.0498C17.2285 10.3183 17.6455 10.4998 17.9995 10.4998C18.355 10.4998 18.7705 10.3198 19.045 10.0453C19.4155 9.67332 19.4995 9.36882 19.4995 8.38332V7.60932L19.7545 7.64982C22.618 8.10582 25.3885 9.97632 26.9305 12.4948C27.622 13.6258 28.1575 15.0403 28.3495 16.2448L28.39 16.4998H27.616C27.097 16.4998 26.74 16.5298 26.5345 16.5913C25.963 16.7608 25.4995 17.3923 25.4995 17.9998C25.4995 18.6073 25.963 19.2388 26.5345 19.4083C26.74 19.4698 27.097 19.4998 27.616 19.4998H28.39L28.3495 19.7548C27.8935 22.6183 26.023 25.3888 23.5045 26.9308C22.3735 27.6223 20.959 28.1578 19.7545 28.3498L19.4995 28.3903V27.6163C19.4995 26.6308 19.4155 26.3263 19.045 25.9543C18.7653 25.6778 18.3924 25.5157 17.9995 25.4998C17.644 25.4998 17.2285 25.6798 16.954 25.9543C16.5835 26.3263 16.4995 26.6308 16.4995 27.6163V28.3903L16.2445 28.3498C13.381 27.8938 10.6105 26.0233 9.06846 23.5048C8.37696 22.3738 7.84146 20.9593 7.64946 19.7548L7.60896 19.4998H8.38296C9.36846 19.4998 9.67296 19.4158 10.045 19.0453C10.3195 18.7708 10.4995 18.3553 10.4995 17.9998C10.4995 17.6443 10.3195 17.2288 10.045 16.9543C9.67296 16.5838 9.36846 16.4998 8.38296 16.4998H7.60896L7.64946 16.2448C7.67196 16.1053 7.75446 15.7333 7.83246 15.4198C8.30005 13.592 9.25024 11.9235 10.5836 10.5888C11.917 9.25406 13.5846 8.30221 15.412 7.83282C16.0015 7.68582 16.2085 7.64232 16.3945 7.62732C16.489 7.62132 16.4995 7.69482 16.4995 8.41932ZM17.2735 15.8653C16.7042 16.0959 16.2368 16.5234 15.9565 17.0698C15.829 17.3308 15.8095 17.4523 15.8095 17.9998C15.8095 18.5773 15.8245 18.6583 15.985 18.9763C16.1935 19.3858 16.6525 19.8388 17.0695 20.0428C17.3305 20.1703 17.452 20.1898 17.9995 20.1898C18.547 20.1898 18.6685 20.1703 18.9295 20.0428C19.3465 19.8388 19.8055 19.3858 20.014 18.9763C20.1745 18.6583 20.1895 18.5773 20.1895 17.9998C20.1895 17.4523 20.17 17.3308 20.0425 17.0698C19.7994 16.6142 19.4301 16.2382 18.979 15.9868C18.682 15.8368 18.556 15.8113 18.0625 15.7978C17.683 15.7873 17.416 15.8098 17.2735 15.8653Z" fill="currentColor"/>
</svg>
