<svg width="36" height="36" viewBox="0 0 36 36" fill="none" xmlns="http://www.w3.org/2000/svg">
<path fill-rule="evenodd" clip-rule="evenodd" d="M11.7416 4.47454C9.80815 4.77454 8.06065 5.64454 6.64165 7.01254C6.15565 7.48054 6.03415 7.72804 6.03415 8.25004C6.03415 8.72854 6.15865 9.02404 6.49015 9.34054C6.70915 9.54904 7.03915 9.68704 8.67115 10.26C9.26515 10.4685 9.77065 10.656 9.79615 10.677C9.82015 10.698 9.67165 10.827 9.46615 10.962C6.72415 12.7725 5.16415 16.443 5.58865 20.0895C5.68465 20.919 5.92015 21.3285 6.45115 21.594C6.82615 21.78 7.39315 21.789 7.73215 21.612C7.86265 21.5445 9.47515 20.5215 11.3171 19.3395C13.1576 18.1575 14.6802 17.196 14.6981 17.202C14.7582 17.2245 14.8707 18.129 14.9352 19.101C15.0912 21.429 14.6937 24.276 13.8491 26.88C13.5792 27.7125 13.1756 28.7745 12.9386 29.28C12.7556 29.6655 12.7271 30.216 12.8711 30.561C12.9956 30.858 13.2926 31.182 13.5851 31.338C13.8266 31.4685 13.8776 31.47 16.7636 31.4865C20.1072 31.5075 20.0966 31.5075 20.5571 31.047C20.7551 30.849 20.8421 30.696 20.9366 30.3795C21.1526 29.646 21.4406 27.867 21.6416 26.01C21.7931 24.6135 21.7931 20.4405 21.6416 19.2C21.4916 17.9775 21.3281 17.0325 21.0881 15.9945C21.0122 15.6942 20.9481 15.391 20.8961 15.0855C20.9036 15.078 22.5581 15.732 24.5711 16.539C28.0316 17.9265 28.2491 18.0045 28.5611 17.985C28.9676 17.9595 29.4161 17.7435 29.6486 17.463C29.9981 17.0385 30.1496 16.1925 30.1437 14.7C30.1406 13.854 30.1152 13.527 30.0071 13.02C29.3757 10.038 27.2022 7.92154 24.2381 7.40554C23.4056 7.26004 22.1456 7.31104 21.2861 7.52554C20.6981 7.67254 19.8491 7.97704 19.4561 8.18254C19.3016 8.26354 19.2971 8.26054 19.1366 7.91854C18.2471 6.03904 16.3421 4.74004 14.0411 4.44154C13.276 4.36333 12.5043 4.3744 11.7416 4.47454ZM14.2511 7.52404C15.1646 7.77304 16.0077 8.38354 16.3362 9.03004C16.5056 9.36454 16.6556 9.82504 16.6106 9.87004C16.5896 9.89104 12.0656 8.30404 10.9241 7.87354C10.7891 7.82254 10.8086 7.80754 11.1641 7.68904C11.9201 7.43854 12.2951 7.38454 13.1111 7.40554C13.5866 7.41754 14.0321 7.46404 14.2511 7.52404ZM24.0777 10.437C25.2626 10.74 26.1296 11.4255 26.6741 12.492C26.9906 13.11 27.2966 14.3985 27.1106 14.325L23.4671 12.867L19.9016 11.4405L20.0771 11.2995C20.2886 11.13 20.9591 10.773 21.3131 10.641C22.2191 10.3035 23.2586 10.227 24.0777 10.437ZM15.0011 12.7275C15.4961 12.84 15.7181 12.9255 15.6596 12.9795C15.5591 13.0755 8.68465 17.463 8.66515 17.4435C8.61565 17.394 8.89465 16.4715 9.11215 15.9675C9.68665 14.6325 10.6196 13.6395 11.8511 13.05C12.8816 12.558 13.8266 12.4605 15.0011 12.7275ZM17.9816 15.9405C18.9461 19.296 19.0691 23.646 18.3266 28.245L18.2861 28.5H17.3937C16.9031 28.5 16.5011 28.4775 16.5011 28.449C16.5011 28.422 16.5566 28.239 16.6241 28.044C16.9311 27.1009 17.1894 26.1426 17.3981 25.173C17.7986 23.247 17.9381 21.933 17.9396 20.076C17.9574 18.7898 17.8398 17.5052 17.5886 16.2435L17.4266 15.417L17.5496 15.3315C17.6156 15.285 17.6981 15.2535 17.7311 15.2625C17.7641 15.2715 17.8766 15.576 17.9816 15.9405Z" fill="currentColor"/>
</svg>
